<mxfile host="Electron" modified="2024-04-02T12:13:57.330Z" agent="Mozilla/5.0 (Windows NT 10.0; Win64; x64) AppleWebKit/537.36 (KHTML, like Gecko) draw.io/21.6.1 Chrome/112.0.5615.204 Electron/24.6.1 Safari/537.36" etag="2rsrhFzV0L96xG2G-4zq" version="21.6.1" type="device">
  <diagram name="第 1 页" id="-bf-NnvuHFj-9ZGMKgRk">
    <mxGraphModel dx="686" dy="396" grid="1" gridSize="10" guides="1" tooltips="1" connect="1" arrows="1" fold="1" page="1" pageScale="1" pageWidth="827" pageHeight="1169" math="0" shadow="0">
      <root>
        <mxCell id="0" />
        <mxCell id="1" parent="0" />
        <mxCell id="xyJJWNDSMZ139-4Sjr5y-16" value="" style="group" vertex="1" connectable="0" parent="1">
          <mxGeometry x="251" y="480" width="130" height="80" as="geometry" />
        </mxCell>
        <mxCell id="xyJJWNDSMZ139-4Sjr5y-17" value="" style="shape=cube;whiteSpace=wrap;html=1;boundedLbl=1;backgroundOutline=1;darkOpacity=0.05;darkOpacity2=0.1;size=40;rotation=0;shadow=0;flipH=1;" vertex="1" parent="xyJJWNDSMZ139-4Sjr5y-16">
          <mxGeometry x="-1" y="30" width="130" height="50" as="geometry" />
        </mxCell>
        <mxCell id="xyJJWNDSMZ139-4Sjr5y-18" value="" style="shape=cube;whiteSpace=wrap;html=1;boundedLbl=1;backgroundOutline=1;darkOpacity=0.05;darkOpacity2=0.1;size=30;rotation=0;shadow=0;flipH=1;" vertex="1" parent="xyJJWNDSMZ139-4Sjr5y-16">
          <mxGeometry x="12" y="24" width="105" height="40" as="geometry" />
        </mxCell>
        <mxCell id="xyJJWNDSMZ139-4Sjr5y-19" value="" style="shape=cube;whiteSpace=wrap;html=1;boundedLbl=1;backgroundOutline=1;darkOpacity=0.05;darkOpacity2=0.1;size=20;rotation=0;shadow=0;flipH=1;" vertex="1" parent="xyJJWNDSMZ139-4Sjr5y-16">
          <mxGeometry x="25" y="18" width="80" height="30" as="geometry" />
        </mxCell>
        <mxCell id="xyJJWNDSMZ139-4Sjr5y-20" value="" style="shape=cube;whiteSpace=wrap;html=1;boundedLbl=1;backgroundOutline=1;darkOpacity=0.05;darkOpacity2=0.1;size=10;rotation=0;shadow=0;flipH=1;" vertex="1" parent="xyJJWNDSMZ139-4Sjr5y-16">
          <mxGeometry x="36.5" y="11" width="55" height="20" as="geometry" />
        </mxCell>
        <mxCell id="xyJJWNDSMZ139-4Sjr5y-21" value="" style="group" vertex="1" connectable="0" parent="1">
          <mxGeometry x="521" y="480" width="130" height="80" as="geometry" />
        </mxCell>
        <mxCell id="xyJJWNDSMZ139-4Sjr5y-22" value="" style="shape=cube;whiteSpace=wrap;html=1;boundedLbl=1;backgroundOutline=1;darkOpacity=0.05;darkOpacity2=0.1;size=40;rotation=0;shadow=0;flipH=1;" vertex="1" parent="xyJJWNDSMZ139-4Sjr5y-21">
          <mxGeometry x="-1" y="30" width="130" height="50" as="geometry" />
        </mxCell>
        <mxCell id="xyJJWNDSMZ139-4Sjr5y-23" value="" style="shape=cube;whiteSpace=wrap;html=1;boundedLbl=1;backgroundOutline=1;darkOpacity=0.05;darkOpacity2=0.1;size=30;rotation=0;shadow=0;flipH=1;" vertex="1" parent="xyJJWNDSMZ139-4Sjr5y-21">
          <mxGeometry x="12" y="24" width="105" height="40" as="geometry" />
        </mxCell>
        <mxCell id="xyJJWNDSMZ139-4Sjr5y-24" value="" style="shape=cube;whiteSpace=wrap;html=1;boundedLbl=1;backgroundOutline=1;darkOpacity=0.05;darkOpacity2=0.1;size=20;rotation=0;shadow=0;flipH=1;" vertex="1" parent="xyJJWNDSMZ139-4Sjr5y-21">
          <mxGeometry x="25" y="18" width="80" height="30" as="geometry" />
        </mxCell>
        <mxCell id="xyJJWNDSMZ139-4Sjr5y-25" value="" style="shape=cube;whiteSpace=wrap;html=1;boundedLbl=1;backgroundOutline=1;darkOpacity=0.05;darkOpacity2=0.1;size=10;rotation=0;shadow=0;flipH=1;" vertex="1" parent="xyJJWNDSMZ139-4Sjr5y-21">
          <mxGeometry x="36.5" y="11" width="55" height="20" as="geometry" />
        </mxCell>
      </root>
    </mxGraphModel>
  </diagram>
</mxfile>
